<svg width="120" height="12" viewBox="0 0 120 12" fill="none" xmlns="http://www.w3.org/2000/svg">
<path d="M5.46913 0.44C6.33313 0.44 7.06913 0.578666 7.67712 0.856C8.28513 1.13333 8.74913 1.53333 9.06913 2.056C9.38913 2.57867 9.54913 3.21333 9.54913 3.96C9.54913 4.70667 9.38913 5.34133 9.06913 5.864C8.74913 6.38667 8.28513 6.78667 7.67712 7.064C7.06913 7.34133 6.33313 7.48 5.46913 7.48H3.37313V11H0.621125V0.44H5.46913ZM5.03713 5.416C5.61313 5.416 6.04513 5.29867 6.33313 5.064C6.63179 4.81867 6.78113 4.45067 6.78113 3.96C6.78113 3.46933 6.63179 3.10667 6.33313 2.872C6.04513 2.62667 5.61313 2.504 5.03713 2.504H3.37313V5.416H5.03713ZM24.8305 11H21.9985L21.2625 8.616H17.6465L16.8945 11H14.1265L17.8385 0.44H21.1345L24.8305 11ZM18.1585 6.744H20.7505L19.4545 2.472L18.1585 6.744ZM36.0986 0.44C37.3573 0.44 38.3333 0.738666 39.0266 1.336C39.7306 1.92267 40.0826 2.70667 40.0826 3.688C40.0826 4.76533 39.736 5.58667 39.0426 6.152C38.3493 6.71733 37.3733 7 36.1146 7L35.8586 7.144H33.7626V11H31.0586V0.44H36.0986ZM35.7146 5.192C36.248 5.192 36.648 5.08533 36.9146 4.872C37.1813 4.65867 37.3146 4.31733 37.3146 3.848C37.3146 3.38933 37.1813 3.05333 36.9146 2.84C36.648 2.62667 36.248 2.52 35.7146 2.52H33.7626V5.192H35.7146ZM37.3306 5.768L40.7066 11H37.6666L34.9626 6.376L37.3306 5.768ZM55.8449 0.44V2.568H52.4049V11H49.6529V2.568H46.1969V0.44H55.8449ZM71.938 0.44V11H68.882L65.602 5.288L64.802 3.72H64.786L64.85 5.672V11H62.418V0.44H65.474L68.754 6.152L69.554 7.72H69.57L69.506 5.768V0.44H71.938ZM79.2774 11V0.44H87.5014V2.568H82.0294V4.712H86.3814V6.712H82.0294V8.872H87.7094V11H79.2774ZM99.4111 0.44C100.67 0.44 101.646 0.738666 102.339 1.336C103.043 1.92267 103.395 2.70667 103.395 3.688C103.395 4.76533 103.048 5.58667 102.355 6.152C101.662 6.71733 100.686 7 99.4271 7L99.1711 7.144H97.0751V11H94.3711V0.44H99.4111ZM99.0271 5.192C99.5605 5.192 99.9605 5.08533 100.227 4.872C100.494 4.65867 100.627 4.31733 100.627 3.848C100.627 3.38933 100.494 3.05333 100.227 2.84C99.9605 2.62667 99.5605 2.52 99.0271 2.52H97.0751V5.192H99.0271ZM100.643 5.768L104.019 11H100.979L98.2751 6.376L100.643 5.768ZM114.53 0.28C115.512 0.28 116.376 0.434666 117.122 0.743999C117.88 1.04267 118.536 1.48533 119.09 2.072L117.762 3.848C117.304 3.368 116.808 3.01067 116.274 2.776C115.752 2.53067 115.154 2.408 114.482 2.408C114.088 2.408 113.768 2.45067 113.522 2.536C113.277 2.62133 113.101 2.73867 112.994 2.888C112.888 3.03733 112.834 3.208 112.834 3.4C112.834 3.624 112.936 3.816 113.138 3.976C113.352 4.12533 113.693 4.25333 114.162 4.36L115.938 4.76C116.994 5.00533 117.768 5.36267 118.258 5.832C118.749 6.30133 118.994 6.92533 118.994 7.704C118.994 8.45067 118.802 9.08533 118.418 9.608C118.034 10.12 117.506 10.5093 116.834 10.776C116.162 11.032 115.394 11.16 114.53 11.16C113.826 11.16 113.154 11.0853 112.514 10.936C111.874 10.776 111.298 10.552 110.786 10.264C110.274 9.976 109.842 9.64533 109.49 9.272L110.818 7.432C111.085 7.74133 111.41 8.01867 111.794 8.264C112.189 8.49867 112.616 8.68533 113.074 8.824C113.544 8.96267 114.018 9.032 114.498 9.032C114.872 9.032 115.181 8.99467 115.426 8.92C115.682 8.84533 115.869 8.73333 115.986 8.584C116.104 8.43467 116.162 8.25867 116.162 8.056C116.162 7.832 116.082 7.64533 115.922 7.496C115.762 7.336 115.458 7.20267 115.01 7.096L113.058 6.664C112.461 6.52533 111.928 6.344 111.458 6.12C111 5.88533 110.637 5.576 110.37 5.192C110.104 4.79733 109.97 4.30667 109.97 3.72C109.97 3.05867 110.152 2.472 110.514 1.96C110.877 1.43733 111.4 1.02667 112.082 0.728C112.765 0.429333 113.581 0.28 114.53 0.28Z" fill="#74C69D"/>
</svg>
