<svg width="61" height="11" viewBox="0 0 61 11" fill="none" xmlns="http://www.w3.org/2000/svg">
<path d="M10.5793 0.44V2.568H7.13925V11H4.38725V2.568H0.93125V0.44H10.5793ZM17.1524 11V0.44H25.3764V2.568H19.9044V4.712H24.2564V6.712H19.9044V8.872H25.5844V11H17.1524ZM41.8461 11H39.0141L38.2781 8.616H34.6621L33.9101 11H31.1421L34.8541 0.44H38.1501L41.8461 11ZM35.1741 6.744H37.7661L36.4701 2.472L35.1741 6.744ZM60.2983 0.44V11H57.8663V6.152L57.9463 2.904H57.9143L55.3063 11H53.0823L50.4743 2.904H50.4423L50.5223 6.152V11H48.0743V0.44H51.9943L53.6583 5.816L54.2503 8.056H54.2823L54.8903 5.832L56.5383 0.44H60.2983Z" fill="#74C69D"/>
</svg>
