<svg width="80" height="12" viewBox="0 0 80 12" fill="none" xmlns="http://www.w3.org/2000/svg">
<path d="M3.8875 11L0.8475 0.44H3.7755L5.5675 8.776L7.4555 0.44H9.9515L11.8875 8.76L13.6475 0.44H16.4795L13.4235 11H10.4315L9.1835 5.88L8.7035 3.304H8.6715L8.2075 5.88L6.9755 11H3.8875ZM27.3103 0.28C28.3769 0.28 29.2943 0.498666 30.0623 0.936C30.8409 1.36267 31.4383 1.98133 31.8543 2.792C32.2703 3.60267 32.4783 4.57867 32.4783 5.72C32.4783 6.86133 32.2703 7.83733 31.8543 8.648C31.4383 9.45867 30.8409 10.0827 30.0623 10.52C29.2943 10.9467 28.3769 11.16 27.3103 11.16C26.2436 11.16 25.3209 10.9467 24.5423 10.52C23.7636 10.0827 23.1663 9.45867 22.7503 8.648C22.3343 7.83733 22.1263 6.86133 22.1263 5.72C22.1263 4.57867 22.3343 3.60267 22.7503 2.792C23.1663 1.98133 23.7636 1.36267 24.5423 0.936C25.3209 0.498666 26.2436 0.28 27.3103 0.28ZM27.3103 2.44C26.7983 2.44 26.3663 2.56267 26.0143 2.808C25.6623 3.05333 25.3956 3.42133 25.2143 3.912C25.0329 4.392 24.9423 4.99467 24.9423 5.72C24.9423 6.43467 25.0329 7.03733 25.2143 7.528C25.3956 8.01867 25.6623 8.38667 26.0143 8.632C26.3663 8.87733 26.7983 9 27.3103 9C27.8223 9 28.2489 8.87733 28.5903 8.632C28.9423 8.38667 29.2089 8.01867 29.3903 7.528C29.5716 7.03733 29.6623 6.43467 29.6623 5.72C29.6623 4.99467 29.5716 4.392 29.3903 3.912C29.2089 3.42133 28.9423 3.05333 28.5903 2.808C28.2489 2.56267 27.8223 2.44 27.3103 2.44ZM44.4111 0.44C45.6698 0.44 46.6458 0.738666 47.3391 1.336C48.0431 1.92267 48.3951 2.70667 48.3951 3.688C48.3951 4.76533 48.0485 5.58667 47.3551 6.152C46.6618 6.71733 45.6858 7 44.4271 7L44.1711 7.144H42.0751V11H39.3711V0.44H44.4111ZM44.0271 5.192C44.5605 5.192 44.9605 5.08533 45.2271 4.872C45.4938 4.65867 45.6271 4.31733 45.6271 3.848C45.6271 3.38933 45.4938 3.05333 45.2271 2.84C44.9605 2.62667 44.5605 2.52 44.0271 2.52H42.0751V5.192H44.0271ZM45.6431 5.768L49.0191 11H45.9791L43.2751 6.376L45.6431 5.768ZM64.9864 0.44L60.0264 6.376L59.8504 5.96L57.3384 9.016L56.8104 6.792L61.9304 0.44H64.9864ZM58.1544 0.44V11H55.4024V0.44H58.1544ZM60.9224 3.928L65.1784 11H62.0584L58.8584 5.464L60.9224 3.928ZM75.296 0.28C76.2773 0.28 77.1413 0.434666 77.888 0.743999C78.6453 1.04267 79.3013 1.48533 79.856 2.072L78.528 3.848C78.0693 3.368 77.5733 3.01067 77.04 2.776C76.5173 2.53067 75.92 2.408 75.248 2.408C74.8533 2.408 74.5333 2.45067 74.288 2.536C74.0427 2.62133 73.8667 2.73867 73.76 2.888C73.6533 3.03733 73.6 3.208 73.6 3.4C73.6 3.624 73.7013 3.816 73.904 3.976C74.1173 4.12533 74.4587 4.25333 74.928 4.36L76.704 4.76C77.76 5.00533 78.5333 5.36267 79.024 5.832C79.5147 6.30133 79.76 6.92533 79.76 7.704C79.76 8.45067 79.568 9.08533 79.184 9.608C78.8 10.12 78.272 10.5093 77.6 10.776C76.928 11.032 76.16 11.16 75.296 11.16C74.592 11.16 73.92 11.0853 73.28 10.936C72.64 10.776 72.064 10.552 71.552 10.264C71.04 9.976 70.608 9.64533 70.256 9.272L71.584 7.432C71.8507 7.74133 72.176 8.01867 72.56 8.264C72.9547 8.49867 73.3813 8.68533 73.84 8.824C74.3093 8.96267 74.784 9.032 75.264 9.032C75.6373 9.032 75.9467 8.99467 76.192 8.92C76.448 8.84533 76.6347 8.73333 76.752 8.584C76.8693 8.43467 76.928 8.25867 76.928 8.056C76.928 7.832 76.848 7.64533 76.688 7.496C76.528 7.336 76.224 7.20267 75.776 7.096L73.824 6.664C73.2267 6.52533 72.6933 6.344 72.224 6.12C71.7653 5.88533 71.4027 5.576 71.136 5.192C70.8693 4.79733 70.736 4.30667 70.736 3.72C70.736 3.05867 70.9173 2.472 71.28 1.96C71.6427 1.43733 72.1653 1.02667 72.848 0.728C73.5307 0.429333 74.3467 0.28 75.296 0.28Z" fill="#74C69D"/>
</svg>
