<svg width="72" height="12" viewBox="0 0 72 12" fill="none" xmlns="http://www.w3.org/2000/svg">
<path d="M4.85975 0.44C5.72375 0.44 6.45975 0.578666 7.06775 0.856C7.67575 1.13333 8.13975 1.53333 8.45975 2.056C8.77975 2.57867 8.93975 3.21333 8.93975 3.96C8.93975 4.70667 8.77975 5.34133 8.45975 5.864C8.13975 6.38667 7.67575 6.78667 7.06775 7.064C6.45975 7.34133 5.72375 7.48 4.85975 7.48H2.76375V11H0.0117501V0.44H4.85975ZM4.42775 5.416C5.00375 5.416 5.43575 5.29867 5.72375 5.064C6.02242 4.81867 6.17175 4.45067 6.17175 3.96C6.17175 3.46933 6.02242 3.10667 5.72375 2.872C5.43575 2.62667 5.00375 2.504 4.42775 2.504H2.76375V5.416H4.42775ZM18.4513 8.872H23.7473V11H15.6993V0.44H18.4513V8.872ZM39.9243 11H37.0923L36.3563 8.616H32.7403L31.9883 11H29.2203L32.9323 0.44H36.2283L39.9243 11ZM33.2523 6.744H35.8443L34.5483 2.472L33.2523 6.744ZM55.6724 0.44V11H52.6164L49.3364 5.288L48.5364 3.72H48.5204L48.5844 5.672V11H46.1524V0.44H49.2084L52.4884 6.152L53.2884 7.72H53.3044L53.2404 5.768V0.44H55.6724ZM67.1398 0.28C68.1211 0.28 68.9851 0.434666 69.7318 0.743999C70.4891 1.04267 71.1451 1.48533 71.6998 2.072L70.3718 3.848C69.9131 3.368 69.4171 3.01067 68.8838 2.776C68.3611 2.53067 67.7638 2.408 67.0918 2.408C66.6971 2.408 66.3771 2.45067 66.1318 2.536C65.8864 2.62133 65.7104 2.73867 65.6038 2.888C65.4971 3.03733 65.4438 3.208 65.4438 3.4C65.4438 3.624 65.5451 3.816 65.7478 3.976C65.9611 4.12533 66.3024 4.25333 66.7718 4.36L68.5478 4.76C69.6038 5.00533 70.3771 5.36267 70.8678 5.832C71.3584 6.30133 71.6038 6.92533 71.6038 7.704C71.6038 8.45067 71.4118 9.08533 71.0278 9.608C70.6438 10.12 70.1158 10.5093 69.4438 10.776C68.7718 11.032 68.0038 11.16 67.1398 11.16C66.4358 11.16 65.7638 11.0853 65.1238 10.936C64.4838 10.776 63.9078 10.552 63.3958 10.264C62.8838 9.976 62.4518 9.64533 62.0998 9.272L63.4278 7.432C63.6944 7.74133 64.0198 8.01867 64.4038 8.264C64.7984 8.49867 65.2251 8.68533 65.6838 8.824C66.1531 8.96267 66.6278 9.032 67.1078 9.032C67.4811 9.032 67.7904 8.99467 68.0358 8.92C68.2918 8.84533 68.4784 8.73333 68.5958 8.584C68.7131 8.43467 68.7718 8.25867 68.7718 8.056C68.7718 7.832 68.6918 7.64533 68.5318 7.496C68.3718 7.336 68.0678 7.20267 67.6198 7.096L65.6678 6.664C65.0704 6.52533 64.5371 6.344 64.0678 6.12C63.6091 5.88533 63.2464 5.576 62.9798 5.192C62.7131 4.79733 62.5798 4.30667 62.5798 3.72C62.5798 3.05867 62.7611 2.472 63.1238 1.96C63.4864 1.43733 64.0091 1.02667 64.6918 0.728C65.3744 0.429333 66.1904 0.28 67.1398 0.28Z" fill="#74C69D"/>
</svg>
